<mxfile>
    <diagram id="WmlN_sQHbRpSQ8ZzWcbX" name="第 3 页">
        <mxGraphModel dx="1348" dy="945" grid="1" gridSize="10" guides="1" tooltips="1" connect="1" arrows="1" fold="1" page="1" pageScale="1" pageWidth="827" pageHeight="1169" background="#E6F5FF" math="0" shadow="0">
            <root>
                <mxCell id="ehOSU1HvzwwBX_Lrzi93-0"/>
                <mxCell id="ehOSU1HvzwwBX_Lrzi93-1" parent="ehOSU1HvzwwBX_Lrzi93-0"/>
                <mxCell id="G0S7nwzKomUWjI0hEBDU-0" style="edgeStyle=orthogonalEdgeStyle;rounded=0;orthogonalLoop=1;jettySize=auto;html=1;exitX=1;exitY=0.5;exitDx=0;exitDy=0;entryX=0;entryY=0.5;entryDx=0;entryDy=0;strokeColor=#000000;fillColor=#FFFFFF;" parent="ehOSU1HvzwwBX_Lrzi93-1" source="G0S7nwzKomUWjI0hEBDU-1" target="G0S7nwzKomUWjI0hEBDU-3" edge="1">
                    <mxGeometry relative="1" as="geometry"/>
                </mxCell>
                <mxCell id="G0S7nwzKomUWjI0hEBDU-1" value="&lt;font color=&quot;#000000&quot; style=&quot;font-size: 14px&quot;&gt;文件切块上传&lt;/font&gt;" style="rounded=1;whiteSpace=wrap;html=1;strokeColor=#666666;strokeWidth=1;fillColor=#FFFFFF;gradientColor=#ffffff;" parent="ehOSU1HvzwwBX_Lrzi93-1" vertex="1">
                    <mxGeometry x="50" y="180" width="120" height="60" as="geometry"/>
                </mxCell>
                <mxCell id="G0S7nwzKomUWjI0hEBDU-5" style="edgeStyle=orthogonalEdgeStyle;rounded=0;orthogonalLoop=1;jettySize=auto;html=1;exitX=0.5;exitY=0;exitDx=0;exitDy=0;entryX=0.5;entryY=0;entryDx=0;entryDy=0;strokeColor=#000000;fillColor=#FFFFFF;" parent="ehOSU1HvzwwBX_Lrzi93-1" source="G0S7nwzKomUWjI0hEBDU-3" target="G0S7nwzKomUWjI0hEBDU-1" edge="1">
                    <mxGeometry relative="1" as="geometry"/>
                </mxCell>
                <mxCell id="G0S7nwzKomUWjI0hEBDU-7" style="edgeStyle=orthogonalEdgeStyle;rounded=0;orthogonalLoop=1;jettySize=auto;html=1;exitX=1;exitY=0.5;exitDx=0;exitDy=0;entryX=0;entryY=0.5;entryDx=0;entryDy=0;strokeColor=#000000;fillColor=#FFFFFF;" parent="ehOSU1HvzwwBX_Lrzi93-1" source="G0S7nwzKomUWjI0hEBDU-3" target="G0S7nwzKomUWjI0hEBDU-6" edge="1">
                    <mxGeometry relative="1" as="geometry"/>
                </mxCell>
                <mxCell id="G0S7nwzKomUWjI0hEBDU-3" value="&lt;font color=&quot;#000000&quot;&gt;参数校验&lt;/font&gt;" style="rhombus;whiteSpace=wrap;html=1;strokeColor=#666666;strokeWidth=1;fillColor=#FFFFFF;gradientColor=#ffffff;" parent="ehOSU1HvzwwBX_Lrzi93-1" vertex="1">
                    <mxGeometry x="200" y="175" width="125" height="70" as="geometry"/>
                </mxCell>
                <mxCell id="G0S7nwzKomUWjI0hEBDU-4" value="&lt;font color=&quot;#000000&quot;&gt;校验未通过，&lt;br&gt;文件上传失败&lt;/font&gt;" style="text;html=1;align=center;verticalAlign=middle;resizable=0;points=[];autosize=1;strokeColor=none;" parent="ehOSU1HvzwwBX_Lrzi93-1" vertex="1">
                    <mxGeometry x="160" y="120" width="90" height="30" as="geometry"/>
                </mxCell>
                <mxCell id="G0S7nwzKomUWjI0hEBDU-9" style="edgeStyle=orthogonalEdgeStyle;rounded=0;orthogonalLoop=1;jettySize=auto;html=1;exitX=1;exitY=0.5;exitDx=0;exitDy=0;entryX=0;entryY=0.5;entryDx=0;entryDy=0;strokeColor=#000000;fillColor=#FFFFFF;" parent="ehOSU1HvzwwBX_Lrzi93-1" source="G0S7nwzKomUWjI0hEBDU-6" target="G0S7nwzKomUWjI0hEBDU-8" edge="1">
                    <mxGeometry relative="1" as="geometry"/>
                </mxCell>
                <mxCell id="G0S7nwzKomUWjI0hEBDU-6" value="&lt;font color=&quot;#000000&quot; style=&quot;font-size: 14px&quot;&gt;文件切块上传&lt;/font&gt;" style="rounded=1;whiteSpace=wrap;html=1;strokeColor=#666666;strokeWidth=1;fillColor=#FFFFFF;gradientColor=#ffffff;" parent="ehOSU1HvzwwBX_Lrzi93-1" vertex="1">
                    <mxGeometry x="354" y="180" width="120" height="60" as="geometry"/>
                </mxCell>
                <mxCell id="G0S7nwzKomUWjI0hEBDU-16" style="edgeStyle=orthogonalEdgeStyle;rounded=0;orthogonalLoop=1;jettySize=auto;html=1;exitX=0.5;exitY=1;exitDx=0;exitDy=0;entryX=1;entryY=0.5;entryDx=0;entryDy=0;strokeColor=#000000;fillColor=#FFFFFF;" parent="ehOSU1HvzwwBX_Lrzi93-1" source="G0S7nwzKomUWjI0hEBDU-8" target="G0S7nwzKomUWjI0hEBDU-10" edge="1">
                    <mxGeometry relative="1" as="geometry"/>
                </mxCell>
                <mxCell id="G0S7nwzKomUWjI0hEBDU-8" value="&lt;font color=&quot;#000000&quot; style=&quot;font-size: 14px&quot;&gt;从Redis中取出切块记录&lt;/font&gt;" style="rounded=1;whiteSpace=wrap;html=1;strokeColor=#666666;strokeWidth=1;fillColor=#FFFFFF;gradientColor=#ffffff;" parent="ehOSU1HvzwwBX_Lrzi93-1" vertex="1">
                    <mxGeometry x="510" y="180" width="120" height="60" as="geometry"/>
                </mxCell>
                <mxCell id="G0S7nwzKomUWjI0hEBDU-13" style="edgeStyle=orthogonalEdgeStyle;rounded=0;orthogonalLoop=1;jettySize=auto;html=1;exitX=0;exitY=0.5;exitDx=0;exitDy=0;entryX=1;entryY=0.5;entryDx=0;entryDy=0;strokeColor=#000000;fillColor=#FFFFFF;" parent="ehOSU1HvzwwBX_Lrzi93-1" source="G0S7nwzKomUWjI0hEBDU-10" target="G0S7nwzKomUWjI0hEBDU-12" edge="1">
                    <mxGeometry relative="1" as="geometry"/>
                </mxCell>
                <mxCell id="G0S7nwzKomUWjI0hEBDU-17" style="edgeStyle=orthogonalEdgeStyle;rounded=0;orthogonalLoop=1;jettySize=auto;html=1;exitX=0.5;exitY=0;exitDx=0;exitDy=0;entryX=0.423;entryY=1.021;entryDx=0;entryDy=0;entryPerimeter=0;strokeColor=#000000;fillColor=#FFFFFF;" parent="ehOSU1HvzwwBX_Lrzi93-1" source="G0S7nwzKomUWjI0hEBDU-10" target="G0S7nwzKomUWjI0hEBDU-1" edge="1">
                    <mxGeometry relative="1" as="geometry">
                        <Array as="points">
                            <mxPoint x="474" y="250"/>
                            <mxPoint x="101" y="250"/>
                        </Array>
                    </mxGeometry>
                </mxCell>
                <mxCell id="G0S7nwzKomUWjI0hEBDU-10" value="&lt;font color=&quot;#000000&quot; style=&quot;font-size: 14px&quot;&gt;校验文件完整性&lt;/font&gt;" style="rounded=1;whiteSpace=wrap;html=1;strokeColor=#666666;strokeWidth=1;fillColor=#FFFFFF;gradientColor=#ffffff;" parent="ehOSU1HvzwwBX_Lrzi93-1" vertex="1">
                    <mxGeometry x="414" y="270" width="120" height="60" as="geometry"/>
                </mxCell>
                <mxCell id="G0S7nwzKomUWjI0hEBDU-15" style="edgeStyle=orthogonalEdgeStyle;rounded=0;orthogonalLoop=1;jettySize=auto;html=1;exitX=0;exitY=0.5;exitDx=0;exitDy=0;entryX=1;entryY=0.5;entryDx=0;entryDy=0;strokeColor=#000000;fillColor=#FFFFFF;" parent="ehOSU1HvzwwBX_Lrzi93-1" source="G0S7nwzKomUWjI0hEBDU-12" target="G0S7nwzKomUWjI0hEBDU-14" edge="1">
                    <mxGeometry relative="1" as="geometry"/>
                </mxCell>
                <mxCell id="G0S7nwzKomUWjI0hEBDU-12" value="&lt;font color=&quot;#000000&quot; style=&quot;font-size: 14px&quot;&gt;文件数据保存至MongoDB&lt;/font&gt;" style="rounded=1;whiteSpace=wrap;html=1;strokeColor=#666666;strokeWidth=1;fillColor=#FFFFFF;gradientColor=#ffffff;" parent="ehOSU1HvzwwBX_Lrzi93-1" vertex="1">
                    <mxGeometry x="250" y="270" width="120" height="60" as="geometry"/>
                </mxCell>
                <mxCell id="G0S7nwzKomUWjI0hEBDU-14" value="&lt;font color=&quot;#000000&quot; style=&quot;font-size: 14px&quot;&gt;删除Redis记录&lt;/font&gt;" style="rounded=1;whiteSpace=wrap;html=1;strokeColor=#666666;strokeWidth=1;fillColor=#FFFFFF;gradientColor=#ffffff;" parent="ehOSU1HvzwwBX_Lrzi93-1" vertex="1">
                    <mxGeometry x="50" y="270" width="120" height="60" as="geometry"/>
                </mxCell>
                <mxCell id="G0S7nwzKomUWjI0hEBDU-18" value="&lt;font color=&quot;#000000&quot;&gt;校验未通过，文件上传失败&lt;/font&gt;" style="text;html=1;align=center;verticalAlign=middle;resizable=0;points=[];autosize=1;strokeColor=none;" parent="ehOSU1HvzwwBX_Lrzi93-1" vertex="1">
                    <mxGeometry x="240" y="245" width="160" height="20" as="geometry"/>
                </mxCell>
            </root>
        </mxGraphModel>
    </diagram>
    <diagram id="QOO2V63FH6XxZ4ptQQqi" name="第 2 页">
        <mxGraphModel dx="1348" dy="945" grid="1" gridSize="10" guides="1" tooltips="1" connect="1" arrows="1" fold="1" page="1" pageScale="1" pageWidth="827" pageHeight="1169" background="#E6F5FF" math="0" shadow="0">
            <root>
                <mxCell id="hgkTo5GwWUl4FUSeO2rO-0"/>
                <mxCell id="hgkTo5GwWUl4FUSeO2rO-1" parent="hgkTo5GwWUl4FUSeO2rO-0"/>
                <mxCell id="6dmGB3XxiBqBXd2qmGTx-2" style="edgeStyle=orthogonalEdgeStyle;rounded=0;orthogonalLoop=1;jettySize=auto;html=1;exitX=0.5;exitY=1;exitDx=0;exitDy=0;entryX=0.5;entryY=0;entryDx=0;entryDy=0;strokeColor=#000000;fillColor=#FFFFFF;" parent="hgkTo5GwWUl4FUSeO2rO-1" source="-m0OaYC-MIy4BxkKf1SA-0" target="-m0OaYC-MIy4BxkKf1SA-1" edge="1">
                    <mxGeometry relative="1" as="geometry"/>
                </mxCell>
                <mxCell id="-m0OaYC-MIy4BxkKf1SA-0" value="&lt;font color=&quot;#000000&quot; style=&quot;font-size: 14px&quot;&gt;文件切块上传&lt;/font&gt;" style="rounded=1;whiteSpace=wrap;html=1;strokeColor=#666666;strokeWidth=1;fillColor=#FFFFFF;gradientColor=#ffffff;" parent="hgkTo5GwWUl4FUSeO2rO-1" vertex="1">
                    <mxGeometry x="50" y="180" width="120" height="60" as="geometry"/>
                </mxCell>
                <mxCell id="6dmGB3XxiBqBXd2qmGTx-0" style="edgeStyle=orthogonalEdgeStyle;rounded=0;orthogonalLoop=1;jettySize=auto;html=1;exitX=1;exitY=0.5;exitDx=0;exitDy=0;entryX=1;entryY=0.5;entryDx=0;entryDy=0;strokeColor=#000000;fillColor=#FFFFFF;" parent="hgkTo5GwWUl4FUSeO2rO-1" source="-m0OaYC-MIy4BxkKf1SA-1" target="-m0OaYC-MIy4BxkKf1SA-0" edge="1">
                    <mxGeometry relative="1" as="geometry">
                        <Array as="points">
                            <mxPoint x="200" y="345"/>
                            <mxPoint x="200" y="210"/>
                        </Array>
                    </mxGeometry>
                </mxCell>
                <mxCell id="6dmGB3XxiBqBXd2qmGTx-4" style="edgeStyle=orthogonalEdgeStyle;rounded=0;orthogonalLoop=1;jettySize=auto;html=1;exitX=0.5;exitY=1;exitDx=0;exitDy=0;entryX=0.5;entryY=1;entryDx=0;entryDy=0;strokeColor=#000000;fillColor=#FFFFFF;" parent="hgkTo5GwWUl4FUSeO2rO-1" source="-m0OaYC-MIy4BxkKf1SA-1" target="6dmGB3XxiBqBXd2qmGTx-3" edge="1">
                    <mxGeometry relative="1" as="geometry"/>
                </mxCell>
                <mxCell id="-m0OaYC-MIy4BxkKf1SA-1" value="&lt;font color=&quot;#000000&quot;&gt;参数校验&lt;/font&gt;" style="rhombus;whiteSpace=wrap;html=1;strokeColor=#666666;strokeWidth=1;fillColor=#FFFFFF;gradientColor=#ffffff;" parent="hgkTo5GwWUl4FUSeO2rO-1" vertex="1">
                    <mxGeometry x="47.5" y="310" width="125" height="70" as="geometry"/>
                </mxCell>
                <mxCell id="6dmGB3XxiBqBXd2qmGTx-1" value="&lt;font color=&quot;#000000&quot;&gt;校验未通过，&lt;br&gt;文件上传失败&lt;/font&gt;" style="text;html=1;align=center;verticalAlign=middle;resizable=0;points=[];autosize=1;strokeColor=none;" parent="hgkTo5GwWUl4FUSeO2rO-1" vertex="1">
                    <mxGeometry x="120" y="270" width="90" height="30" as="geometry"/>
                </mxCell>
                <mxCell id="6dmGB3XxiBqBXd2qmGTx-6" style="edgeStyle=orthogonalEdgeStyle;rounded=0;orthogonalLoop=1;jettySize=auto;html=1;exitX=0.5;exitY=0;exitDx=0;exitDy=0;entryX=0.5;entryY=1;entryDx=0;entryDy=0;strokeColor=#000000;fillColor=#FFFFFF;" parent="hgkTo5GwWUl4FUSeO2rO-1" source="6dmGB3XxiBqBXd2qmGTx-3" target="6dmGB3XxiBqBXd2qmGTx-5" edge="1">
                    <mxGeometry relative="1" as="geometry"/>
                </mxCell>
                <mxCell id="6dmGB3XxiBqBXd2qmGTx-3" value="&lt;font color=&quot;#000000&quot; style=&quot;font-size: 14px&quot;&gt;文件切块存储&lt;/font&gt;" style="rounded=1;whiteSpace=wrap;html=1;strokeColor=#666666;strokeWidth=1;fillColor=#FFFFFF;gradientColor=#ffffff;" parent="hgkTo5GwWUl4FUSeO2rO-1" vertex="1">
                    <mxGeometry x="270" y="320" width="120" height="60" as="geometry"/>
                </mxCell>
                <mxCell id="6dmGB3XxiBqBXd2qmGTx-5" value="&lt;font color=&quot;#000000&quot; style=&quot;font-size: 14px&quot;&gt;Redis记录存储&lt;/font&gt;" style="rounded=1;whiteSpace=wrap;html=1;strokeColor=#666666;strokeWidth=1;fillColor=#FFFFFF;gradientColor=#ffffff;" parent="hgkTo5GwWUl4FUSeO2rO-1" vertex="1">
                    <mxGeometry x="270" y="180" width="120" height="60" as="geometry"/>
                </mxCell>
            </root>
        </mxGraphModel>
    </diagram>
    <diagram id="ZMOX4pnem-CBX442hL8_" name="第 1 页">
        <mxGraphModel dx="1348" dy="945" grid="1" gridSize="10" guides="1" tooltips="1" connect="1" arrows="1" fold="1" page="1" pageScale="1" pageWidth="827" pageHeight="1169" background="#E6F5FF" math="0" shadow="0">
            <root>
                <mxCell id="0"/>
                <mxCell id="1" parent="0"/>
                <mxCell id="14" style="edgeStyle=orthogonalEdgeStyle;rounded=0;orthogonalLoop=1;jettySize=auto;html=1;exitX=0.5;exitY=1;exitDx=0;exitDy=0;entryX=0.5;entryY=0;entryDx=0;entryDy=0;strokeColor=#000000;" parent="1" source="11" target="13" edge="1">
                    <mxGeometry relative="1" as="geometry"/>
                </mxCell>
                <mxCell id="11" value="&lt;font style=&quot;font-size: 14px&quot;&gt;文件上传&lt;/font&gt;" style="rounded=1;whiteSpace=wrap;html=1;fontColor=#333333;fillColor=#FFFFFF;strokeColor=#666666;" parent="1" vertex="1">
                    <mxGeometry x="130" y="310" width="120" height="60" as="geometry"/>
                </mxCell>
                <mxCell id="15" style="edgeStyle=orthogonalEdgeStyle;rounded=0;orthogonalLoop=1;jettySize=auto;html=1;exitX=1;exitY=0.5;exitDx=0;exitDy=0;entryX=1;entryY=0.5;entryDx=0;entryDy=0;strokeColor=#000000;fillColor=#FFFFFF;" parent="1" source="13" target="11" edge="1">
                    <mxGeometry relative="1" as="geometry"/>
                </mxCell>
                <mxCell id="19" style="edgeStyle=orthogonalEdgeStyle;rounded=0;orthogonalLoop=1;jettySize=auto;html=1;exitX=0.5;exitY=1;exitDx=0;exitDy=0;entryX=0.5;entryY=1;entryDx=0;entryDy=0;strokeColor=#000000;fillColor=#FFFFFF;" parent="1" source="13" target="17" edge="1">
                    <mxGeometry relative="1" as="geometry"/>
                </mxCell>
                <mxCell id="13" value="&lt;font color=&quot;#000000&quot;&gt;检查文件是否存在&lt;/font&gt;" style="rhombus;whiteSpace=wrap;html=1;fillColor=#FFFFFF;gradientColor=#ffffff;strokeWidth=1;strokeColor=#666666;" parent="1" vertex="1">
                    <mxGeometry x="110" y="430" width="160" height="80" as="geometry"/>
                </mxCell>
                <mxCell id="16" value="&lt;font color=&quot;#000000&quot;&gt;存在，&lt;br&gt;则直接返回&lt;br&gt;上传成功&lt;/font&gt;" style="text;html=1;align=center;verticalAlign=middle;resizable=0;points=[];autosize=1;strokeColor=none;" parent="1" vertex="1">
                    <mxGeometry x="210" y="380" width="80" height="50" as="geometry"/>
                </mxCell>
                <mxCell id="22" style="edgeStyle=orthogonalEdgeStyle;rounded=0;orthogonalLoop=1;jettySize=auto;html=1;exitX=0.5;exitY=0;exitDx=0;exitDy=0;entryX=0.5;entryY=1;entryDx=0;entryDy=0;strokeColor=#000000;fillColor=#FFFFFF;" parent="1" source="17" target="21" edge="1">
                    <mxGeometry relative="1" as="geometry"/>
                </mxCell>
                <mxCell id="17" value="&lt;font style=&quot;font-size: 14px&quot;&gt;文件切块上传&lt;/font&gt;" style="rounded=1;whiteSpace=wrap;html=1;fontColor=#333333;fillColor=#FFFFFF;strokeColor=#666666;" parent="1" vertex="1">
                    <mxGeometry x="360" y="450" width="120" height="60" as="geometry"/>
                </mxCell>
                <mxCell id="20" value="&lt;font color=&quot;#000000&quot;&gt;不存在，进入下一步&lt;/font&gt;" style="text;html=1;align=center;verticalAlign=middle;resizable=0;points=[];autosize=1;strokeColor=none;" parent="1" vertex="1">
                    <mxGeometry x="220" y="510" width="120" height="20" as="geometry"/>
                </mxCell>
                <mxCell id="23" style="edgeStyle=orthogonalEdgeStyle;rounded=0;orthogonalLoop=1;jettySize=auto;html=1;exitX=0;exitY=0.5;exitDx=0;exitDy=0;entryX=1;entryY=0.5;entryDx=0;entryDy=0;strokeColor=#000000;fillColor=#FFFFFF;" parent="1" source="21" target="11" edge="1">
                    <mxGeometry relative="1" as="geometry"/>
                </mxCell>
                <mxCell id="21" value="&lt;span style=&quot;font-size: 14px&quot;&gt;后端合并切块记录&lt;/span&gt;" style="rounded=1;whiteSpace=wrap;html=1;fontColor=#333333;fillColor=#FFFFFF;strokeColor=#666666;" parent="1" vertex="1">
                    <mxGeometry x="360" y="310" width="120" height="60" as="geometry"/>
                </mxCell>
                <mxCell id="24" value="&lt;font color=&quot;#000000&quot;&gt;返回上传成功&lt;/font&gt;" style="text;html=1;align=center;verticalAlign=middle;resizable=0;points=[];autosize=1;strokeColor=none;" parent="1" vertex="1">
                    <mxGeometry x="270" y="320" width="90" height="20" as="geometry"/>
                </mxCell>
            </root>
        </mxGraphModel>
    </diagram>
    <diagram id="DE9T5BLLzvSn36sX_F-d" name="第 4 页">
        <mxGraphModel dx="1348" dy="945" grid="1" gridSize="10" guides="1" tooltips="1" connect="1" arrows="1" fold="1" page="1" pageScale="1" pageWidth="827" pageHeight="1169" math="0" shadow="0">
            <root>
                <mxCell id="miRdcktA_SXMH0fwRgTS-0"/>
                <mxCell id="miRdcktA_SXMH0fwRgTS-1" parent="miRdcktA_SXMH0fwRgTS-0"/>
            </root>
        </mxGraphModel>
    </diagram>
</mxfile>